<svg xmlns="http://www.w3.org/2000/svg" width="960" height="570" viewBox="0 0 960 570" fill="none">
  <defs>
    <linearGradient id="blue" x1="490" y1="80" x2="850" y2="500" gradientUnits="userSpaceOnUse">
      <stop stop-color="#178DFF"/><stop offset="1" stop-color="#0668E1"/>
    </linearGradient>
    <filter id="shadow" x="-20%" y="-30%" width="150%" height="170%">
      <feDropShadow dx="13" dy="18" stdDeviation="15" flood-color="#14529B" flood-opacity=".24"/>
    </filter>
  </defs>
  <path d="M54 469 625 35h264L318 548H54Z" fill="#D7EAFF"/>
  <path d="M723 27h159M824 9v36M83 77h120M128 59v36" stroke="#0668E1" stroke-width="6" stroke-linecap="square" opacity=".48"/>
  <circle cx="790" cy="116" r="93" stroke="#0668E1" stroke-width="3" opacity=".18"/>
  <circle cx="790" cy="116" r="54" stroke="#0668E1" stroke-width="3" stroke-dasharray="7 11" opacity=".35"/>
  <g transform="rotate(-8 252 285)" filter="url(#shadow)">
    <rect x="37" y="133" width="450" height="319" rx="22" fill="#102942"/>
    <path d="M37 155c0-12 10-22 22-22h406c12 0 22 10 22 22v39H37v-39Z" fill="#27435B"/>
    <circle cx="72" cy="164" r="8" fill="#79B8FF"/><circle cx="100" cy="164" r="8" fill="#79B8FF" opacity=".6"/><circle cx="128" cy="164" r="8" fill="#79B8FF" opacity=".35"/>
    <text x="65" y="239" fill="#A5C2D9" font-family="Menlo,monospace" font-size="22" font-weight="700">01 / INPUT</text>
    <path d="M70 281h20l-20 18h20M108 299h148M70 338h274M70 377h202" stroke="#7CC5FF" stroke-width="11" stroke-linecap="round" stroke-linejoin="round"/>
    <rect x="69" y="410" width="92" height="5" rx="2" fill="#D9FF68"/>
  </g>
  <g transform="rotate(5 693 285)" filter="url(#shadow)">
    <rect x="438" y="69" width="480" height="431" rx="24" fill="url(#blue)"/>
    <path d="M438 93c0-13 11-24 24-24h432c13 0 24 11 24 24v47H438V93Z" fill="#2B9AFF"/>
    <circle cx="471" cy="105" r="8" fill="white"/><circle cx="500" cy="105" r="8" fill="white" opacity=".65"/>
    <text x="744" y="113" fill="white" font-family="Menlo,monospace" font-size="20" font-weight="700">WORKSPACE</text>
    <rect x="467" y="166" width="128" height="296" rx="14" fill="#B9DEFF"/>
    <rect x="487" y="190" width="86" height="13" rx="6" fill="#2576D8"/>
    <rect x="487" y="232" width="65" height="10" rx="5" fill="#669EE4"/>
    <rect x="487" y="265" width="78" height="10" rx="5" fill="#669EE4"/>
    <rect x="487" y="298" width="54" height="10" rx="5" fill="#669EE4"/>
    <rect x="619" y="166" width="270" height="179" rx="14" fill="white"/>
    <rect x="642" y="190" width="111" height="11" rx="5" fill="#16395A"/>
    <rect x="642" y="229" width="218" height="29" rx="7" fill="#DBF2E9"/>
    <path d="M658 244h119" stroke="#35967D" stroke-width="7" stroke-linecap="round"/>
    <rect x="642" y="270" width="185" height="29" rx="7" fill="#FFE7DF"/>
    <path d="M658 285h102" stroke="#D78166" stroke-width="7" stroke-linecap="round"/>
    <rect x="619" y="361" width="270" height="101" rx="14" fill="#093F92"/>
    <path d="M643 391h105M643 420h169" stroke="#AED6FF" stroke-width="10" stroke-linecap="round"/>
    <circle cx="852" cy="426" r="13" fill="#D9FF68"/>
  </g>
  <path d="m353 54 41-26-3 30 34 11-41 26 3-30-34-11Z" fill="#D9FF68"/>
  <path d="M185 521h185M65 540h136M815 532h89" stroke="#0668E1" stroke-width="7" stroke-linecap="square" opacity=".7"/>
</svg>
